<svg width="58" height="58" viewBox="0 0 58 58" fill="none" xmlns="http://www.w3.org/2000/svg">
<g filter="url(#filter0_dd_687_8522)">
<rect x="4.5" y="1.5" width="49" height="49" rx="14" fill="url(#paint0_linear_687_8522)" stroke="url(#paint1_linear_687_8522)" stroke-width="3"/>
<path fill-rule="evenodd" clip-rule="evenodd" d="M36.5449 26.2681C39.6964 26.2683 42.2508 28.814 42.251 31.9534C42.2508 35.0928 39.6964 37.6374 36.5449 37.6376C33.3933 37.6374 30.8378 35.0928 30.8376 31.9534C30.8378 28.8139 33.3933 26.2682 36.5449 26.2681ZM36.5449 28.8696C36.2246 28.8698 35.9647 29.1287 35.9645 29.4478V31.3752H34.0296C33.7094 31.3754 33.4495 31.6344 33.4493 31.9534C33.4495 32.2724 33.7094 32.5313 34.0296 32.5315H35.9645V34.4578C35.9645 34.777 36.2245 35.0358 36.5449 35.036C36.8652 35.0358 37.1253 34.777 37.1253 34.4578V32.5315H39.059C39.3794 32.5315 39.6392 32.2725 39.6394 31.9534C39.6392 31.6343 39.3794 31.3752 39.059 31.3752H37.1253V29.4478C37.125 29.1288 36.8651 28.8698 36.5449 28.8696Z" fill="white"/>
<path d="M26.6912 29.0627C27.3318 29.0632 27.8518 29.5808 27.8519 30.219C27.8518 30.8572 27.3318 31.3748 26.6912 31.3752H26.6799C26.0389 31.3752 25.5193 30.8574 25.5192 30.219C25.5193 29.5805 26.0389 29.0627 26.6799 29.0627H26.6912Z" fill="white"/>
<path d="M26.6799 19.8127C27.3203 19.8133 27.8405 20.3308 27.8406 20.9689V25.5939C27.8405 26.232 27.3203 26.7496 26.6799 26.7502C26.0389 26.7502 25.5193 26.2324 25.5192 25.5939V20.9689C25.5193 20.3305 26.0389 19.8127 26.6799 19.8127Z" fill="white"/>
<path fill-rule="evenodd" clip-rule="evenodd" d="M26.6674 12.8593C27.2832 12.8594 27.8889 13.0224 28.421 13.3313C28.9516 13.6395 29.3916 14.0821 29.695 14.614L35.2277 24.2604C35.6561 24.1882 36.0959 24.1486 36.5449 24.1486C40.872 24.1486 44.3798 27.6429 44.3798 31.9534C44.3798 36.2638 40.872 39.7581 36.5449 39.7581C33.7053 39.7581 31.2188 38.2531 29.8447 36.0003H17.393C16.783 36.0038 16.1823 35.8477 15.6519 35.5475C15.1183 35.2454 14.6735 34.8075 14.3642 34.2794C14.0551 33.7514 13.8918 33.1507 13.8904 32.5394C13.8891 31.9294 14.0497 31.3302 14.3551 30.8016L23.6398 14.614C23.9434 14.0818 24.384 13.6395 24.915 13.3313C25.447 13.0226 26.0517 12.8593 26.6674 12.8593ZM36.5449 25.1118C32.7523 25.112 29.6771 28.1754 29.6769 31.9534C29.6771 35.7314 32.7523 38.7937 36.5449 38.7938C40.3375 38.7936 43.4115 35.7314 43.4118 31.9534C43.4115 28.1754 40.3375 25.112 36.5449 25.1118ZM26.6674 15.1718C26.4624 15.1718 26.2608 15.2261 26.0836 15.3288C25.9063 15.4317 25.7587 15.5799 25.6574 15.7578L25.6563 15.7612L16.3705 31.9489L16.3671 31.9534C16.2648 32.1299 16.2114 32.331 16.2118 32.5349C16.2124 32.7383 16.2666 32.9384 16.3694 33.1141C16.4725 33.29 16.6212 33.4369 16.799 33.5376C16.9766 33.638 17.1785 33.6895 17.3828 33.6878H28.9061C28.779 33.1298 28.71 32.5496 28.71 31.9534C28.71 28.9216 30.4459 26.2947 32.9811 25.0023L27.6796 15.7612L27.6774 15.7578C27.5763 15.5802 27.4294 15.4317 27.2523 15.3288C27.0751 15.2259 26.8725 15.1719 26.6674 15.1718Z" fill="white"/>
</g>
<defs>
<filter id="filter0_dd_687_8522" x="0" y="0" width="58" height="58" filterUnits="userSpaceOnUse" color-interpolation-filters="sRGB">
<feFlood flood-opacity="0" result="BackgroundImageFix"/>
<feColorMatrix in="SourceAlpha" type="matrix" values="0 0 0 0 0 0 0 0 0 0 0 0 0 0 0 0 0 0 127 0" result="hardAlpha"/>
<feOffset dy="2"/>
<feGaussianBlur stdDeviation="1"/>
<feComposite in2="hardAlpha" operator="out"/>
<feColorMatrix type="matrix" values="0 0 0 0 0 0 0 0 0 0 0 0 0 0 0 0 0 0 0.25 0"/>
<feBlend mode="normal" in2="BackgroundImageFix" result="effect1_dropShadow_687_8522"/>
<feColorMatrix in="SourceAlpha" type="matrix" values="0 0 0 0 0 0 0 0 0 0 0 0 0 0 0 0 0 0 127 0" result="hardAlpha"/>
<feOffset dy="3"/>
<feGaussianBlur stdDeviation="1.5"/>
<feComposite in2="hardAlpha" operator="out"/>
<feColorMatrix type="matrix" values="0 0 0 0 0 0 0 0 0 0 0 0 0 0 0 0 0 0 0.25 0"/>
<feBlend mode="normal" in2="effect1_dropShadow_687_8522" result="effect2_dropShadow_687_8522"/>
<feBlend mode="normal" in="SourceGraphic" in2="effect2_dropShadow_687_8522" result="shape"/>
</filter>
<linearGradient id="paint0_linear_687_8522" x1="29" y1="0" x2="29" y2="52" gradientUnits="userSpaceOnUse">
<stop stop-color="#FEE2E2"/>
<stop offset="0.105769" stop-color="#EF4444"/>
<stop offset="1" stop-color="#B91C1C"/>
</linearGradient>
<linearGradient id="paint1_linear_687_8522" x1="29" y1="0" x2="29" y2="52" gradientUnits="userSpaceOnUse">
<stop stop-color="white"/>
<stop offset="0.956731" stop-color="#999999" stop-opacity="0"/>
</linearGradient>
</defs>
</svg>
