<svg width="220" height="34" viewBox="0 0 411 63" fill="none" xmlns="http://www.w3.org/2000/svg">
<path d="M25.8107 36.4022C25.8107 35.7063 26.372 35.1423 27.0644 35.1423H33.6667C34.3591 35.1423 34.9204 35.7063 34.9204 36.4022V43.05C34.9204 43.7458 34.3591 44.3098 33.6667 44.3098H27.0644C26.372 44.3098 25.8107 43.7458 25.8107 43.05V36.4022Z" fill="#F70D1A"/>
<path d="M13.6645 18.0671C13.6645 17.3713 14.2258 16.8072 14.9182 16.8072H21.5205C22.2129 16.8072 22.7742 17.3713 22.7742 18.0671V24.7149C22.7742 25.4107 22.2129 25.9747 21.5205 25.9747H14.9182C14.2258 25.9747 13.6645 25.4107 13.6645 24.7149V18.0671Z" fill="#F70D1A"/>
<path d="M30.3656 23.7588C30.3656 23.2949 30.7398 22.9189 31.2014 22.9189H35.6029C36.0645 22.9189 36.4387 23.2949 36.4387 23.7588V28.1907C36.4387 28.6545 36.0645 29.0306 35.6029 29.0306H31.2014C30.7398 29.0306 30.3656 28.6545 30.3656 28.1907V23.7588Z" fill="#2D3142"/>
<path d="M9.10967 9.79748C9.10967 9.44957 9.39032 9.16754 9.73653 9.16754H13.0377C13.3839 9.16754 13.6645 9.44957 13.6645 9.79748V13.1214C13.6645 13.4693 13.3839 13.7513 13.0377 13.7513H9.73653C9.39032 13.7513 9.10967 13.4693 9.10967 13.1214V9.79748Z" fill="#2D3142"/>
<path d="M18.2193 52.1013C18.2193 51.1736 18.9677 50.4215 19.891 50.4215H28.694C29.6172 50.4215 30.3656 51.1736 30.3656 52.1013V60.9651C30.3656 61.8928 29.6172 62.6449 28.694 62.6449H19.891C18.9677 62.6449 18.2193 61.8928 18.2193 60.9651V52.1013Z" fill="#F70D1A"/>
<path d="M67.2768 0C84.2447 0 97.9999 14.103 97.9999 31.5C97.9999 48.897 84.2447 63 67.2768 63H35.4192C34.249 63 33.3003 62.0274 33.3003 60.8276V52.5724C33.3003 51.3726 34.249 50.4 35.4192 50.4H67.2768C77.4575 50.4 85.7107 41.9382 85.7107 31.5C85.7107 21.0618 77.4575 12.6 67.2768 12.6H35.4192C34.249 12.6 33.3003 11.6274 33.3003 10.4276V2.17241C33.3003 0.972622 34.249 0 35.4192 0H67.2768Z" fill="#F70D1A"/>
<path d="M9.10967 44.9397C9.10967 44.5918 9.39032 44.3098 9.73653 44.3098H13.0377C13.3839 44.3098 13.6645 44.5918 13.6645 44.9397V48.2637C13.6645 48.6116 13.3839 48.8936 13.0377 48.8936H9.73653C9.39032 48.8936 9.10967 48.6116 9.10967 48.2637V44.9397Z" fill="#2D3142"/>
<path d="M15.1828 38.8281C15.1828 38.4802 15.4634 38.1981 15.8096 38.1981H19.1108C19.457 38.1981 19.7376 38.4802 19.7376 38.8281V42.152C19.7376 42.4999 19.457 42.7819 19.1108 42.7819H15.8096C15.4634 42.7819 15.1828 42.4999 15.1828 42.152V38.8281Z" fill="#2D3142"/>
<path d="M18.2193 1.67983C18.2193 0.752085 18.9677 0 19.891 0H28.694C29.6172 0 30.3656 0.752083 30.3656 1.67982V10.5436C30.3656 11.4713 29.6172 12.2234 28.694 12.2234H19.891C18.9677 12.2234 18.2193 11.4713 18.2193 10.5436V1.67983Z" fill="#2D3142"/>
<path d="M1.51828 23.7588C1.51828 23.2949 1.89248 22.9189 2.35409 22.9189H6.75559C7.21719 22.9189 7.59139 23.2949 7.59139 23.7588V28.1907C7.59139 28.6545 7.21719 29.0306 6.75559 29.0306H2.35408C1.89248 29.0306 1.51828 28.6545 1.51828 28.1907V23.7588Z" fill="#2D3142"/>
<path d="M10.628 29.8705C10.628 29.4066 11.0022 29.0306 11.4638 29.0306H15.8653C16.3269 29.0306 16.7011 29.4066 16.7011 29.8705V34.3024C16.7011 34.7662 16.3269 35.1423 15.8653 35.1423H11.4638C11.0022 35.1423 10.628 34.7662 10.628 34.3024V29.8705Z" fill="#2D3142"/>
<path d="M410.96 31.6V45H408.44V32.08C408.44 27.7067 405.88 25.52 400.76 25.52C394.654 25.52 391.6 28.1867 391.6 33.52V45H389.08V32.08C389.08 27.7067 386.52 25.52 381.4 25.52C375.32 25.52 372.28 28.1867 372.28 33.52V45H369.76V23.8H372.28V27.8H372.44C373.907 24.8667 377.027 23.4 381.8 23.4C386.76 23.4 389.84 24.9867 391.04 28.16H391.24C392.734 24.9867 396.027 23.4 401.12 23.4C407.68 23.4 410.96 26.1334 410.96 31.6Z" fill="#2D3142"/>
<path d="M361.215 39.28H363.815C362.589 43.36 358.589 45.4 351.815 45.4H350.415C342.095 45.4 337.935 42.1067 337.935 35.52V33.4C337.935 26.7334 342.095 23.4 350.415 23.4H351.775C360.095 23.4 364.255 26.7334 364.255 33.4V34.88H340.455V35.08C340.455 38.1734 341.295 40.3334 342.975 41.56C344.655 42.76 347.375 43.36 351.135 43.36C353.989 43.36 356.215 43.08 357.815 42.52C359.415 41.9334 360.549 40.8534 361.215 39.28ZM359.135 27.16C357.429 25.96 354.762 25.36 351.135 25.36C347.509 25.36 344.842 25.9334 343.135 27.08C341.455 28.2 340.562 30.1734 340.455 33H361.735V32.84C361.735 30.2534 360.869 28.36 359.135 27.16Z" fill="#2D3142"/>
<path d="M334.54 42.96V45H332.18C328.847 45 326.527 44.48 325.22 43.44C323.913 42.3733 323.26 40.36 323.26 37.4V25.84H316.22V23.8H323.26V17H325.78V23.8H334.54V25.84H325.78V37.4C325.78 39.6933 326.287 41.2 327.3 41.92C328.313 42.6133 330.087 42.96 332.62 42.96H334.54Z" fill="#2D3142"/>
<path d="M315.399 23.8L299.199 51.8H296.439L300.599 44.88L288.159 23.8H290.999L301.919 42.28H302.119L312.639 23.8H315.399Z" fill="#2D3142"/>
<path d="M268.368 45.4H267.808C257.835 45.4 252.035 43.1066 250.408 38.52H253.208C254.888 41.6666 259.902 43.24 268.248 43.24C273.102 43.24 276.742 42.7733 279.168 41.84C281.622 40.88 282.848 39.28 282.848 37.04V36.6C282.848 34.84 282.208 33.6533 280.928 33.04C279.648 32.4 277.248 32.0133 273.728 31.88L262.848 31.48C258.875 31.32 256.088 30.7466 254.488 29.76C252.888 28.7733 252.088 27.12 252.088 24.8V24.6C252.088 21.72 253.382 19.6666 255.968 18.44C258.582 17.2133 262.315 16.6 267.168 16.6H267.968C277.382 16.6 282.822 18.9066 284.288 23.52H281.568C280.235 20.3466 275.568 18.76 267.568 18.76C263.142 18.76 259.902 19.2133 257.848 20.12C255.795 21 254.768 22.44 254.768 24.44V24.52C254.768 26.3066 255.408 27.52 256.688 28.16C257.968 28.7733 260.355 29.1466 263.848 29.28L274.768 29.68C278.688 29.7866 281.448 30.36 283.048 31.4C284.675 32.4133 285.488 34.0666 285.488 36.36V36.68C285.488 38.3866 285.062 39.8266 284.208 41C283.382 42.1733 282.155 43.08 280.528 43.72C278.928 44.3333 277.155 44.76 275.208 45C273.262 45.2666 270.982 45.4 268.368 45.4Z" fill="#2D3142"/>
<path d="M231.594 31.6V45H229.074V32.08C229.074 27.7067 226.287 25.52 220.714 25.52C214.154 25.52 210.874 28.0934 210.874 33.24V45H208.354V23.8H210.874V27.92H211.034C212.581 24.9067 215.941 23.4 221.114 23.4C222.607 23.4 223.954 23.5467 225.154 23.84C226.354 24.1067 227.447 24.5467 228.434 25.16C229.447 25.7734 230.221 26.6267 230.754 27.72C231.314 28.8134 231.594 30.1067 231.594 31.6Z" fill="#2D3142"/>
<path d="M189.299 51.8H187.699C181.325 51.8 177.285 49.92 175.579 46.16H178.459C179.419 47.6 180.659 48.5734 182.179 49.08C183.699 49.5867 185.725 49.84 188.259 49.84C191.779 49.84 194.432 49.3334 196.219 48.32C198.005 47.3334 198.899 45.5334 198.899 42.92V39.2H198.739C198.019 40.72 196.845 41.8534 195.219 42.6C193.619 43.32 191.365 43.68 188.459 43.68H187.739C179.632 43.68 175.579 40.6134 175.579 34.48V32.6C175.579 26.4667 179.632 23.4 187.739 23.4H188.459C191.392 23.4 193.659 23.76 195.259 24.48C196.859 25.2 198.019 26.3334 198.739 27.88H198.899V23.8H201.459V43.44C201.459 49.0134 197.405 51.8 189.299 51.8ZM184.459 41.32C185.605 41.5067 186.965 41.6 188.539 41.6C190.112 41.6 191.445 41.52 192.539 41.36C193.659 41.1734 194.725 40.8267 195.739 40.32C196.779 39.8134 197.565 39.04 198.099 38C198.632 36.96 198.899 35.6534 198.899 34.08V32.96C198.899 31.4134 198.632 30.1334 198.099 29.12C197.565 28.08 196.779 27.3067 195.739 26.8C194.725 26.2934 193.659 25.9467 192.539 25.76C191.419 25.5734 190.085 25.48 188.539 25.48C186.965 25.48 185.605 25.5734 184.459 25.76C183.339 25.9467 182.259 26.2934 181.219 26.8C180.205 27.3067 179.432 28.08 178.899 29.12C178.365 30.1334 178.099 31.4134 178.099 32.96V34.08C178.099 35.6267 178.365 36.92 178.899 37.96C179.432 38.9734 180.205 39.7467 181.219 40.28C182.259 40.7867 183.339 41.1334 184.459 41.32Z" fill="#2D3142"/>
<path d="M166.245 17H168.765V19.76H166.245V17ZM166.245 23.8H168.765V45H166.245V23.8Z" fill="#2D3142"/>
<path d="M148.128 45.4H147.728C145.994 45.4 144.434 45.3067 143.048 45.12C141.688 44.96 140.408 44.68 139.208 44.28C138.034 43.8534 137.074 43.2667 136.328 42.52C135.608 41.7734 135.141 40.8534 134.928 39.76H137.608C138.354 42.1867 141.808 43.4 147.968 43.4C151.488 43.4 154.061 43.08 155.688 42.44C157.314 41.8 158.154 40.6267 158.208 38.92V38.76C158.208 37.4534 157.714 36.5867 156.728 36.16C155.741 35.7067 153.981 35.4267 151.448 35.32L143.888 35.04C140.954 34.9334 138.861 34.48 137.608 33.68C136.381 32.88 135.768 31.6267 135.768 29.92V29.4C135.768 25.4 139.541 23.4 147.088 23.4H147.568C151.168 23.4 153.994 23.84 156.048 24.72C158.101 25.5734 159.354 27 159.808 29H157.128C156.701 27.7467 155.714 26.84 154.168 26.28C152.621 25.6934 150.328 25.4 147.288 25.4C144.114 25.4 141.821 25.6934 140.408 26.28C139.021 26.84 138.314 27.8934 138.288 29.44V29.6C138.288 30.9334 138.821 31.8134 139.888 32.24C140.928 32.6134 142.661 32.8667 145.088 33L152.648 33.28C155.554 33.3867 157.621 33.8534 158.848 34.68C160.101 35.48 160.728 36.72 160.728 38.4V38.88C160.728 40.16 160.408 41.24 159.768 42.12C159.154 42.9734 158.248 43.64 157.048 44.12C155.874 44.5734 154.568 44.8934 153.128 45.08C151.714 45.2934 150.048 45.4 148.128 45.4Z" fill="#2D3142"/>
<path d="M127.661 39.28H130.261C129.034 43.36 125.034 45.4 118.261 45.4H116.861C108.541 45.4 104.381 42.1067 104.381 35.52V33.4C104.381 26.7334 108.541 23.4 116.861 23.4H118.221C126.541 23.4 130.701 26.7334 130.701 33.4V34.88H106.901V35.08C106.901 38.1734 107.741 40.3334 109.421 41.56C111.101 42.76 113.821 43.36 117.581 43.36C120.434 43.36 122.661 43.08 124.261 42.52C125.861 41.9334 126.994 40.8534 127.661 39.28ZM125.581 27.16C123.874 25.96 121.207 25.36 117.581 25.36C113.954 25.36 111.287 25.9334 109.581 27.08C107.901 28.2 107.007 30.1734 106.901 33H128.181V32.84C128.181 30.2534 127.314 28.36 125.581 27.16Z" fill="#2D3142"/>
</svg>
