<svg width="219" height="140" viewBox="0 0 219 140" fill="none" xmlns="http://www.w3.org/2000/svg">
<path d="M57.6791 80.8936C57.6791 79.3474 58.9334 78.0939 60.4807 78.0939H75.2348C76.7821 78.0939 78.0364 79.3474 78.0364 80.8936V95.6665C78.0364 97.2127 76.7821 98.4662 75.2348 98.4662H60.4807C58.9334 98.4662 57.6791 97.2127 57.6791 95.6665V80.8936Z" fill="#2D3142"/>
<path d="M30.536 40.149C30.536 38.6027 31.7903 37.3492 33.3376 37.3492H48.0917C49.639 37.3492 50.8933 38.6027 50.8933 40.1489V54.9219C50.8933 56.4681 49.639 57.7216 48.0917 57.7216H33.3376C31.7903 57.7216 30.536 56.4681 30.536 54.9219V40.149Z" fill="#2D3142"/>
<path d="M67.8578 52.7973C67.8578 51.7664 68.694 50.9308 69.7255 50.9308H79.5615C80.5931 50.9308 81.4293 51.7664 81.4293 52.7973V62.6459C81.4293 63.6767 80.5931 64.5123 79.5615 64.5123H69.7255C68.694 64.5123 67.8578 63.6767 67.8578 62.6459V52.7973Z" fill="#2D3142"/>
<path d="M20.3573 21.7722C20.3573 20.9991 20.9845 20.3723 21.7582 20.3723H29.1352C29.9088 20.3723 30.536 20.9991 30.536 21.7722V29.1586C30.536 29.9317 29.9088 30.5585 29.1352 30.5585H21.7582C20.9845 30.5585 20.3573 29.9317 20.3573 29.1586V21.7722Z" fill="#2D3142"/>
<path d="M40.7147 115.781C40.7147 113.719 42.3871 112.048 44.4502 112.048H64.1222C66.1853 112.048 67.8578 113.719 67.8578 115.781V135.478C67.8578 137.54 66.1853 139.211 64.1222 139.211H44.4502C42.3871 139.211 40.7147 137.54 40.7147 135.478V115.781Z" fill="#2D3142"/>
<path d="M150.343 0C188.261 0 219 31.3401 219 70C219 108.66 188.261 140 150.343 140H79.151C76.536 140 74.4161 137.839 74.4161 135.172V116.828C74.4161 114.161 76.536 112 79.151 112H150.343C173.094 112 191.537 93.196 191.537 70C191.537 46.804 173.094 28 150.343 28H79.151C76.536 28 74.4161 25.8386 74.4161 23.1724V4.82759C74.4161 2.16138 76.536 0 79.151 0H150.343Z" fill="#2D3142"/>
<path d="M20.3573 99.866C20.3573 99.0929 20.9845 98.4662 21.7582 98.4662H29.1352C29.9088 98.4662 30.536 99.0929 30.536 99.866V107.252C30.536 108.026 29.9088 108.652 29.1352 108.652H21.7582C20.9845 108.652 20.3573 108.026 20.3573 107.252V99.866Z" fill="#2D3142"/>
<path d="M33.9289 86.2845C33.9289 85.5114 34.5561 84.8846 35.3297 84.8846H42.7067C43.4804 84.8846 44.1076 85.5114 44.1076 86.2845V93.6709C44.1076 94.4441 43.4804 95.0708 42.7067 95.0708H35.3297C34.5561 95.0708 33.9289 94.4441 33.9289 93.6709V86.2845Z" fill="#2D3142"/>
<path d="M40.7147 3.73295C40.7147 1.6713 42.3871 0 44.4502 0H64.1222C66.1853 0 67.8578 1.6713 67.8578 3.73294V23.4301C67.8578 25.4918 66.1853 27.1631 64.1222 27.1631H44.4502C42.3871 27.1631 40.7147 25.4918 40.7147 23.4301V3.73295Z" fill="#2D3142"/>
<path d="M3.39288 52.7973C3.39288 51.7664 4.22911 50.9308 5.26065 50.9308H15.0967C16.1282 50.9308 16.9644 51.7664 16.9644 52.7973V62.6459C16.9644 63.6767 16.1282 64.5123 15.0967 64.5123H5.26065C4.22911 64.5123 3.39288 63.6767 3.39288 62.6459V52.7973Z" fill="#2D3142"/>
<path d="M23.7502 66.3788C23.7502 65.348 24.5864 64.5123 25.618 64.5123H35.454C36.4855 64.5123 37.3218 65.348 37.3218 66.3788V76.2274C37.3218 77.2582 36.4855 78.0939 35.454 78.0939H25.618C24.5864 78.0939 23.7502 77.2582 23.7502 76.2274V66.3788Z" fill="#2D3142"/>
</svg>
