<svg width="275" height="84" viewBox="0 0 275 84" fill="none" xmlns="http://www.w3.org/2000/svg">
<path d="M271.664 79.5255H270.048V77.9895H271.664V79.5255Z" fill="#E6E8E6"/>
<path d="M263.249 79.6855H262.641C259.313 79.6855 257.649 78.3682 257.649 75.7335V74.8855C257.649 72.2189 259.313 70.8855 262.641 70.8855H263.249C265.958 70.8855 267.558 71.7175 268.049 73.3815H267.009C266.753 72.7522 266.283 72.3202 265.601 72.0855C264.929 71.8509 264.054 71.7335 262.977 71.7335C261.441 71.7335 260.337 71.9735 259.665 72.4535C258.993 72.9335 258.657 73.7975 258.657 75.0455V75.5255C258.657 76.7735 258.993 77.6375 259.665 78.1175C260.337 78.5975 261.441 78.8375 262.977 78.8375C264.054 78.8375 264.929 78.7202 265.601 78.4855C266.283 78.2509 266.753 77.8189 267.009 77.1895H268.049C267.558 78.8535 265.958 79.6855 263.249 79.6855Z" fill="#E6E8E6"/>
<path d="M255.901 74.1655V79.5255H254.893V74.3575C254.893 72.6082 253.778 71.7335 251.549 71.7335C248.925 71.7335 247.613 72.7629 247.613 74.8215V79.5255H246.605V71.0455H247.613V72.6935H247.677C248.296 71.4882 249.64 70.8855 251.709 70.8855C252.306 70.8855 252.845 70.9442 253.325 71.0615C253.805 71.1682 254.242 71.3442 254.637 71.5895C255.042 71.8349 255.352 72.1762 255.565 72.6135C255.789 73.0509 255.901 73.5682 255.901 74.1655Z" fill="#E6E8E6"/>
<path d="M243.817 68.3255V79.5255H242.761V68.3255H243.817Z" fill="#E6E8E6"/>
<path d="M234.381 77.2375H235.421C234.931 78.8695 233.331 79.6855 230.621 79.6855H230.061C226.733 79.6855 225.069 78.3682 225.069 75.7335V74.8855C225.069 72.2189 226.733 70.8855 230.061 70.8855H230.605C233.933 70.8855 235.597 72.2189 235.597 74.8855V75.4775H226.077V75.5575C226.077 76.7949 226.413 77.6589 227.085 78.1495C227.757 78.6295 228.845 78.8695 230.349 78.8695C231.491 78.8695 232.381 78.7575 233.021 78.5335C233.661 78.2989 234.115 77.8669 234.381 77.2375ZM233.549 72.3895C232.867 71.9095 231.8 71.6695 230.349 71.6695C228.899 71.6695 227.832 71.8989 227.149 72.3575C226.477 72.8055 226.12 73.5949 226.077 74.7255H234.589V74.6615C234.589 73.6269 234.243 72.8695 233.549 72.3895Z" fill="#E6E8E6"/>
<path d="M223.14 71.0455H224.292V71.8935H223.012C220.526 71.8935 219.284 72.7842 219.284 74.5655V79.5255H218.276V71.0455H219.284V72.6615H219.348C219.838 71.5842 221.102 71.0455 223.14 71.0455Z" fill="#E6E8E6"/>
<path d="M216.055 74.1815V79.5255H215.047V77.6215H214.983C214.769 78.2295 214.279 78.7309 213.511 79.1255C212.753 79.5095 211.676 79.7015 210.279 79.7015C208.839 79.7015 207.772 79.4882 207.079 79.0615C206.396 78.6242 206.055 77.9575 206.055 77.0615V76.9495C206.055 76.1602 206.295 75.5789 206.775 75.2055C207.265 74.8215 208.017 74.6135 209.031 74.5815L215.047 74.3735V74.2455C215.047 73.2429 214.743 72.5655 214.135 72.2135C213.537 71.8509 212.577 71.6695 211.255 71.6695C210.22 71.6695 209.409 71.7922 208.823 72.0375C208.236 72.2829 207.82 72.7362 207.575 73.3975H206.551C206.807 72.5549 207.292 71.9255 208.007 71.5095C208.721 71.0935 209.756 70.8855 211.111 70.8855H211.495C213.02 70.8855 214.161 71.1415 214.919 71.6535C215.676 72.1655 216.055 73.0082 216.055 74.1815ZM207.079 76.9655V77.0295C207.079 78.2882 208.199 78.9175 210.439 78.9175C211.868 78.9175 212.993 78.6509 213.815 78.1175C214.636 77.5842 215.047 76.7895 215.047 75.7335V75.1255L209.207 75.3335C208.471 75.3549 207.932 75.4935 207.591 75.7495C207.249 75.9949 207.079 76.4002 207.079 76.9655Z" fill="#E6E8E6"/>
<path d="M205.404 71.0455L202.06 79.5255H200.636L196.764 71.8615L192.94 79.5255H191.372L188.076 71.0455H189.18L192.204 78.7415H192.268L196.108 71.0455H197.468L201.308 78.7415H201.372L204.396 71.0455H205.404Z" fill="#E6E8E6"/>
<path d="M187.429 78.7095V79.5255H186.485C185.151 79.5255 184.223 79.3175 183.701 78.9015C183.178 78.4749 182.917 77.6695 182.917 76.4855V71.8615H180.101V71.0455H182.917V68.3255H183.925V71.0455H187.429V71.8615H183.925V76.4855C183.925 77.4029 184.127 78.0055 184.533 78.2935C184.938 78.5709 185.647 78.7095 186.661 78.7095H187.429Z" fill="#E6E8E6"/>
<path d="M174.831 71.8615H171.983V71.0455H174.831C174.874 70.0109 175.178 69.3015 175.743 68.9175C176.298 68.5229 177.178 68.3255 178.383 68.3255H179.919V69.1415H178.511C177.594 69.1415 176.922 69.2695 176.495 69.5255C176.069 69.7709 175.85 70.2775 175.839 71.0455H179.919V71.8615H175.839V79.5255H174.831V71.8615Z" fill="#E6E8E6"/>
<path d="M166.159 79.6855H165.247C161.919 79.6855 160.255 78.3682 160.255 75.7335V74.8855C160.255 72.2189 161.919 70.8855 165.247 70.8855H166.159C169.487 70.8855 171.151 72.2189 171.151 74.8855V75.7335C171.151 78.3682 169.487 79.6855 166.159 79.6855ZM162.303 78.1175C162.996 78.5975 164.132 78.8375 165.711 78.8375C167.29 78.8375 168.42 78.5975 169.103 78.1175C169.796 77.6375 170.143 76.7735 170.143 75.5255V75.0455C170.143 73.7975 169.796 72.9335 169.103 72.4535C168.42 71.9735 167.29 71.7335 165.711 71.7335C164.132 71.7335 162.996 71.9735 162.303 72.4535C161.61 72.9335 161.263 73.7975 161.263 75.0455V75.5255C161.263 76.7735 161.61 77.6375 162.303 78.1175Z" fill="#E6E8E6"/>
<path d="M151.811 79.6855H151.587C147.597 79.6855 145.277 78.7682 144.627 76.9335H145.747C146.419 78.1922 148.424 78.8215 151.763 78.8215C153.704 78.8215 155.16 78.6349 156.131 78.2615C157.112 77.8775 157.603 77.2375 157.603 76.3415V76.1655C157.603 75.4615 157.347 74.9869 156.835 74.7415C156.323 74.4855 155.363 74.3309 153.955 74.2775L149.603 74.1175C148.013 74.0535 146.899 73.8242 146.259 73.4295C145.619 73.0349 145.299 72.3735 145.299 71.4455V71.3655C145.299 70.2135 145.816 69.3922 146.851 68.9015C147.896 68.4109 149.389 68.1655 151.331 68.1655H151.651C155.416 68.1655 157.592 69.0882 158.179 70.9335H157.091C156.557 69.6642 154.691 69.0295 151.491 69.0295C149.72 69.0295 148.424 69.2109 147.603 69.5735C146.781 69.9255 146.371 70.5015 146.371 71.3015V71.3335C146.371 72.0482 146.627 72.5335 147.139 72.7895C147.651 73.0349 148.605 73.1842 150.003 73.2375L154.371 73.3975C155.939 73.4402 157.043 73.6695 157.683 74.0855C158.333 74.4909 158.659 75.1522 158.659 76.0695V76.1975C158.659 76.8802 158.488 77.4562 158.147 77.9255C157.816 78.3949 157.325 78.7575 156.675 79.0135C156.035 79.2589 155.325 79.4295 154.547 79.5255C153.768 79.6322 152.856 79.6855 151.811 79.6855Z" fill="#E6E8E6"/>
<path d="M252.373 32.9639C252.373 31.8594 251.477 30.9639 250.373 30.9639H246.815C245.71 30.9639 244.815 30.0685 244.815 28.9639V25.6774C244.815 24.5728 245.71 23.6774 246.815 23.6774H250.373C251.477 23.6774 252.373 22.782 252.373 21.6774V16C252.373 14.8954 253.268 14 254.373 14H260.487C261.592 14 262.487 14.8954 262.487 16V21.6774C262.487 22.782 263.383 23.6774 264.487 23.6774H271C272.105 23.6774 273 24.5728 273 25.6774V28.9639C273 30.0685 272.105 30.9639 271 30.9639H264.487C263.383 30.9639 262.487 31.8594 262.487 32.9639V40.4706C262.487 43.0892 263.018 44.778 264.079 45.537C265.177 46.296 267.261 46.6755 270.329 46.6755H271C272.105 46.6755 273 47.5709 273 48.6755V51.8482C273 52.9527 272.105 53.8482 271 53.8482H266.806C261.389 53.8482 257.619 52.9753 255.498 51.2296C253.414 49.4459 252.373 46.3719 252.373 42.0076V32.9639Z" fill="#FBFBF3"/>
<path d="M201.932 63.5255C200.828 63.5255 199.932 62.6301 199.932 61.5255V25.6774C199.932 24.5728 200.828 23.6774 201.932 23.6774H208.047C209.152 23.6774 210.047 24.5728 210.047 25.6774V28.8551C210.047 28.9508 210.125 29.0284 210.22 29.0284C210.288 29.0284 210.349 28.9889 210.378 28.9279C211.332 26.93 212.945 25.4644 215.218 24.5312C217.529 23.5825 220.73 23.1081 224.822 23.1081H226.072C231.83 23.1081 236.168 24.1897 239.085 26.3529C242.039 28.5161 243.517 32.2542 243.517 37.5673V39.9582C243.517 45.2713 242.039 49.0094 239.085 51.1726C236.168 53.3358 231.83 54.4174 226.072 54.4174H224.822C220.73 54.4174 217.529 53.943 215.218 52.9942C212.945 52.061 211.332 50.5955 210.378 48.5975C210.349 48.5366 210.288 48.4971 210.22 48.4971C210.125 48.4971 210.047 48.5747 210.047 48.6704V61.5255C210.047 62.6301 209.152 63.5255 208.047 63.5255H201.932ZM230.731 32.2163C228.989 31.2675 225.977 30.7931 221.696 30.7931C217.415 30.7931 214.404 31.2675 212.661 32.2163C210.918 33.1271 210.047 35.0626 210.047 38.0227V39.5028C210.047 42.425 210.918 44.3605 212.661 45.3092C214.442 46.258 217.453 46.7324 221.696 46.7324C225.977 46.7324 228.989 46.277 230.731 45.3662C232.474 44.4174 233.345 42.4629 233.345 39.5028V38.0227C233.345 35.0626 232.474 33.1271 230.731 32.2163Z" fill="#FBFBF3"/>
<path d="M157.611 41.8368V25.6774C157.611 24.5728 158.507 23.6774 159.611 23.6774H165.726C166.831 23.6774 167.726 24.5728 167.726 25.6774V40.1859C167.726 42.8425 168.389 44.6072 169.715 45.4801C171.041 46.315 173.087 46.7324 175.852 46.7324C179.034 46.7324 181.402 46.1442 182.955 44.9677C184.546 43.7533 185.342 41.7229 185.342 38.8766V25.6774C185.342 24.5728 186.237 23.6774 187.342 23.6774H193.513C194.618 23.6774 195.513 24.5728 195.513 25.6774V51.8482C195.513 52.9527 194.618 53.8482 193.513 53.8482H187.342C186.237 53.8482 185.342 52.9527 185.342 51.8482V48.7085C185.342 48.5918 185.247 48.4971 185.13 48.4971C185.051 48.4971 184.978 48.5423 184.941 48.6127C182.91 52.4825 178.725 54.4174 172.386 54.4174C170.075 54.4174 168.086 54.2467 166.419 53.9051C164.79 53.5635 163.275 52.9563 161.873 52.0835C160.471 51.2106 159.411 49.9203 158.691 48.2125C157.971 46.5047 157.611 44.3795 157.611 41.8368Z" fill="#FBFBF3"/>
<path d="M153.364 23.6774H153.467C154.571 23.6774 155.466 24.5728 155.466 25.6774V29.5332C155.466 30.6378 154.571 31.5332 153.467 31.5332H150.693C147.019 31.5332 144.348 32.0835 142.681 33.184C141.014 34.2846 140.181 36.2581 140.181 39.1044V51.8482C140.181 52.9528 139.285 53.8482 138.181 53.8482H132.009C130.904 53.8482 130.009 52.9528 130.009 51.8482V25.6774C130.009 24.5728 130.904 23.6774 132.009 23.6774H138.181C139.285 23.6774 140.181 24.5728 140.181 25.6774V28.7984C140.181 28.894 140.258 28.9715 140.354 28.9715C140.421 28.9715 140.483 28.9319 140.512 28.8708C141.389 27.0262 142.851 25.7126 144.897 24.9298C146.981 24.0949 149.803 23.6774 153.364 23.6774Z" fill="#FBFBF3"/>
<path d="M106.834 54.4174H105.186C98.7464 54.4174 93.9731 53.7722 90.8667 52.4819C88.5894 51.536 86.923 50.0598 85.8672 48.0534C85.2594 46.8983 86.2265 45.6508 87.5318 45.6508H94.8917C95.5074 45.6508 96.0719 45.9586 96.5599 46.334C97.2163 46.8388 98.0841 47.1993 99.1631 47.4155C100.716 47.7191 103.103 47.8709 106.323 47.8709C110.111 47.8709 112.687 47.6432 114.051 47.1878C115.453 46.7324 116.154 45.9354 116.154 44.7969V44.6261C116.154 43.7912 115.718 43.203 114.847 42.8614C114.013 42.5199 112.346 42.3111 109.846 42.2352L98.2539 41.7798C93.7837 41.628 90.6204 40.907 88.7642 39.6166C86.9079 38.2884 85.9798 36.1821 85.9798 33.2978V32.7286C85.9798 29.0474 87.5708 26.5237 90.753 25.1574C93.9352 23.7912 98.8411 23.1081 105.471 23.1081H106.266C112.214 23.1081 116.646 23.7912 119.563 25.1574C121.621 26.1091 123.257 27.4842 124.47 29.2829C125.256 30.4497 124.296 31.8747 122.888 31.8747H115.737C115.137 31.8747 114.583 31.5827 114.091 31.2404C112.57 30.1832 109.697 29.6546 105.471 29.6546C101.947 29.6546 99.5419 29.8633 98.2539 30.2808C97.0037 30.6982 96.3787 31.4003 96.3787 32.387V32.6147C96.3787 33.4497 96.8143 34.0379 97.6856 34.3794C98.557 34.721 100.224 34.9297 102.686 35.0056L114.335 35.461C118.805 35.6508 121.95 36.3908 123.768 37.6811C125.624 38.9715 126.553 41.0588 126.553 43.943V44.4553C126.553 48.1745 125.018 50.7741 121.95 52.2542C118.881 53.6963 113.843 54.4174 106.834 54.4174Z" fill="#FBFBF3"/>
<path d="M71.129 25.6773C71.129 24.5728 72.0244 23.6773 73.129 23.6773H79.3006C80.4052 23.6773 81.3006 24.5728 81.3006 25.6773V51.8481C81.3006 52.9527 80.4052 53.8481 79.3006 53.8481H73.129C72.0244 53.8481 71.129 52.9527 71.129 51.8481V25.6773Z" fill="#FBFBF3"/>
<path d="M79.3005 14H73.1288C72.0243 14 71.1288 14.8954 71.1288 16V18.2618C71.1288 19.3664 72.0243 20.2618 73.1288 20.2618H79.3005C80.405 20.2618 81.3005 19.3664 81.3005 18.2618V16C81.3005 14.8954 80.405 14 79.3005 14Z" fill="#FBFBF3"/>
<path d="M17.289 36.8246C17.289 36.3692 17.665 36 18.1288 36H22.5512C23.015 36 23.391 36.3692 23.391 36.8246V41.1754C23.391 41.6308 23.015 42 22.5512 42H18.1288C17.665 42 17.289 41.6308 17.289 41.1754V36.8246Z" fill="#F70D1A"/>
<path d="M9.15298 24.8246C9.15298 24.3692 9.52897 24 9.99276 24H14.4152C14.879 24 15.255 24.3692 15.255 24.8246V29.1754C15.255 29.6308 14.879 30 14.4152 30H9.99276C9.52897 30 9.15298 29.6308 9.15298 29.1754V24.8246Z" fill="#F70D1A"/>
<path d="M20.34 28.5497C20.34 28.2461 20.5907 28 20.8998 28H23.8481C24.1573 28 24.408 28.2461 24.408 28.5497V31.4503C24.408 31.7539 24.1573 32 23.8481 32H20.8998C20.5907 32 20.34 31.7539 20.34 31.4503V28.5497Z" fill="#FBFBF3"/>
<path d="M6.10199 19.4123C6.10199 19.1846 6.28998 19 6.52188 19H8.7331C8.965 19 9.15299 19.1846 9.15299 19.4123V21.5877C9.15299 21.8154 8.965 22 8.7331 22H6.52188C6.28998 22 6.10199 21.8154 6.10199 21.5877V19.4123Z" fill="#FBFBF3"/>
<path d="M12.204 47.0994C12.204 46.4922 12.7053 46 13.3237 46H19.2203C19.8387 46 20.34 46.4922 20.34 47.0994V52.9006C20.34 53.5078 19.8387 54 19.2203 54H13.3237C12.7053 54 12.204 53.5078 12.204 52.9006V47.0994Z" fill="#F70D1A"/>
<path d="M45.0644 13C56.4302 13 65.644 22.2302 65.644 33.6162C65.644 45.0022 56.4302 54.2324 45.0644 54.2324H23.725C22.9412 54.2324 22.3058 53.5959 22.3058 52.8106V47.4078C22.3058 46.6225 22.9412 45.9859 23.725 45.9859H45.0644C51.8839 45.9859 57.4122 40.4478 57.4122 33.6162C57.4122 26.7846 51.8839 21.2465 45.0644 21.2465H23.725C22.9412 21.2465 22.3058 20.6099 22.3058 19.8247V14.4218C22.3058 13.6366 22.9412 13 23.725 13H45.0644Z" fill="#F70D1A"/>
<path d="M6.10199 42.4123C6.10199 42.1846 6.28998 42 6.52188 42H8.7331C8.965 42 9.15299 42.1846 9.15299 42.4123V44.5877C9.15299 44.8154 8.965 45 8.7331 45H6.52188C6.28998 45 6.10199 44.8154 6.10199 44.5877V42.4123Z" fill="#FBFBF3"/>
<path d="M10.17 38.4123C10.17 38.1846 10.358 38 10.5899 38H12.8011C13.033 38 13.221 38.1846 13.221 38.4123V40.5877C13.221 40.8154 13.033 41 12.8011 41H10.5899C10.358 41 10.17 40.8154 10.17 40.5877V38.4123Z" fill="#FBFBF3"/>
<path d="M12.204 14.0994C12.204 13.4922 12.7053 13 13.3237 13H19.2203C19.8387 13 20.34 13.4922 20.34 14.0994V19.9006C20.34 20.5078 19.8387 21 19.2203 21H13.3237C12.7053 21 12.204 20.5078 12.204 19.9006V14.0994Z" fill="#FBFBF3"/>
<path d="M1.017 28.5497C1.017 28.2461 1.26765 28 1.57685 28H4.52514C4.83434 28 5.085 28.2461 5.085 28.5497V31.4503C5.085 31.7539 4.83434 32 4.52514 32H1.57685C1.26765 32 1.017 31.7539 1.017 31.4503V28.5497Z" fill="#FBFBF3"/>
<path d="M7.11899 32.5497C7.11899 32.2461 7.36964 32 7.67884 32H10.6271C10.9363 32 11.187 32.2461 11.187 32.5497V35.4503C11.187 35.7539 10.9363 36 10.6271 36H7.67884C7.36964 36 7.11899 35.7539 7.11899 35.4503V32.5497Z" fill="#FBFBF3"/>
</svg>
