<svg width="577" height="176" viewBox="0 0 577 176" fill="none" xmlns="http://www.w3.org/2000/svg">
<path d="M570 166.625H566.609V163.407H570V166.625Z" fill="#5E4F7E"/>
<path d="M552.344 166.96H551.068C544.085 166.96 540.594 164.2 540.594 158.68V156.903C540.594 151.316 544.085 148.522 551.068 148.522H552.344C558.028 148.522 561.385 150.265 562.415 153.752H560.233C559.696 152.433 558.711 151.528 557.279 151.036C555.869 150.545 554.033 150.299 551.773 150.299C548.55 150.299 546.234 150.802 544.824 151.807C543.414 152.813 542.709 154.623 542.709 157.238V158.244C542.709 160.859 543.414 162.669 544.824 163.675C546.234 164.681 548.55 165.183 551.773 165.183C554.033 165.183 555.869 164.938 557.279 164.446C558.711 163.954 559.696 163.049 560.233 161.73H562.415C561.385 165.217 558.028 166.96 552.344 166.96Z" fill="#5E4F7E"/>
<path d="M536.927 155.394V166.625H534.812V155.797C534.812 152.131 532.473 150.299 527.796 150.299C522.29 150.299 519.537 152.456 519.537 156.769V166.625H517.422V148.857H519.537V152.31H519.671C520.969 149.785 523.789 148.522 528.131 148.522C529.385 148.522 530.515 148.645 531.522 148.891C532.529 149.114 533.447 149.483 534.275 149.997C535.125 150.511 535.774 151.226 536.222 152.143C536.692 153.059 536.927 154.143 536.927 155.394Z" fill="#5E4F7E"/>
<path d="M511.573 143.158V166.625H509.358V143.158H511.573Z" fill="#5E4F7E"/>
<path d="M491.775 161.831H493.957C492.927 165.25 489.57 166.96 483.886 166.96H482.711C475.728 166.96 472.236 164.2 472.236 158.68V156.903C472.236 151.316 475.728 148.522 482.711 148.522H483.852C490.835 148.522 494.326 151.316 494.326 156.903V158.143H474.351V158.311C474.351 160.904 475.056 162.714 476.466 163.742C477.876 164.748 480.159 165.25 483.315 165.25C485.71 165.25 487.578 165.016 488.921 164.546C490.264 164.055 491.215 163.15 491.775 161.831ZM490.029 151.673C488.597 150.668 486.359 150.165 483.315 150.165C480.271 150.165 478.033 150.645 476.601 151.606C475.191 152.545 474.441 154.199 474.351 156.568H492.211V156.434C492.211 154.266 491.484 152.679 490.029 151.673Z" fill="#5E4F7E"/>
<path d="M468.187 148.857H470.605V150.634H467.919C462.704 150.634 460.097 152.5 460.097 156.233V166.625H457.982V148.857H460.097V152.243H460.231C461.261 149.986 463.913 148.857 468.187 148.857Z" fill="#5E4F7E"/>
<path d="M453.322 155.428V166.625H451.207V162.636H451.073C450.625 163.91 449.596 164.96 447.984 165.787C446.395 166.591 444.135 166.994 441.203 166.994C438.181 166.994 435.943 166.547 434.489 165.653C433.056 164.736 432.34 163.34 432.34 161.462V161.228C432.34 159.574 432.844 158.356 433.851 157.574C434.88 156.769 436.458 156.333 438.584 156.266L451.207 155.83V155.562C451.207 153.461 450.569 152.042 449.293 151.305C448.04 150.545 446.026 150.165 443.251 150.165C441.08 150.165 439.379 150.422 438.148 150.936C436.917 151.45 436.044 152.4 435.529 153.785H433.381C433.918 152.02 434.936 150.701 436.436 149.83C437.935 148.958 440.106 148.522 442.948 148.522H443.754C446.955 148.522 449.349 149.058 450.938 150.131C452.527 151.204 453.322 152.97 453.322 155.428ZM434.489 161.261V161.395C434.489 164.032 436.839 165.351 441.539 165.351C444.538 165.351 446.899 164.792 448.622 163.675C450.345 162.557 451.207 160.892 451.207 158.68V157.406L438.954 157.842C437.409 157.886 436.279 158.177 435.563 158.713C434.847 159.227 434.489 160.077 434.489 161.261Z" fill="#5E4F7E"/>
<path d="M430.975 148.857L423.959 166.625H420.971L412.847 150.567L404.823 166.625H401.534L394.618 148.857H396.934L403.279 164.982H403.414L411.471 148.857H414.324L422.381 164.982H422.515L428.86 148.857H430.975Z" fill="#5E4F7E"/>
<path d="M393.26 164.915V166.625H391.279C388.481 166.625 386.534 166.189 385.438 165.318C384.341 164.424 383.793 162.736 383.793 160.255V150.567H377.884V148.857H383.793V143.158H385.908V148.857H393.26V150.567H385.908V160.255C385.908 162.177 386.333 163.44 387.183 164.044C388.034 164.625 389.522 164.915 391.648 164.915H393.26Z" fill="#5E4F7E"/>
<path d="M366.828 150.567H360.852V148.857H366.828C366.917 146.689 367.555 145.203 368.741 144.399C369.905 143.572 371.751 143.158 374.28 143.158H377.503V144.868H374.549C372.624 144.868 371.214 145.136 370.319 145.673C369.424 146.187 368.965 147.248 368.943 148.857H377.503V150.567H368.943V166.625H366.828V150.567Z" fill="#5E4F7E"/>
<path d="M348.632 166.96H346.718C339.736 166.96 336.244 164.2 336.244 158.68V156.903C336.244 151.316 339.736 148.522 346.718 148.522H348.632C355.615 148.522 359.106 151.316 359.106 156.903V158.68C359.106 164.2 355.615 166.96 348.632 166.96ZM340.541 163.675C341.996 164.681 344.379 165.183 347.692 165.183C351.004 165.183 353.376 164.681 354.809 163.675C356.264 162.669 356.991 160.859 356.991 158.244V157.238C356.991 154.623 356.264 152.813 354.809 151.807C353.376 150.802 351.004 150.299 347.692 150.299C344.379 150.299 341.996 150.802 340.541 151.807C339.086 152.813 338.359 154.623 338.359 157.238V158.244C338.359 160.859 339.086 162.669 340.541 163.675Z" fill="#5E4F7E"/>
<path d="M318.527 166.96H318.057C309.686 166.96 304.818 165.038 303.453 161.194H305.803C307.213 163.831 311.421 165.15 318.426 165.15C322.499 165.15 325.554 164.759 327.591 163.977C329.65 163.172 330.679 161.831 330.679 159.954V159.585C330.679 158.11 330.142 157.115 329.068 156.601C327.994 156.065 325.979 155.741 323.025 155.629L313.894 155.294C310.559 155.16 308.22 154.679 306.877 153.852C305.535 153.025 304.863 151.64 304.863 149.695V149.528C304.863 147.114 305.949 145.393 308.12 144.365C310.313 143.337 313.446 142.823 317.519 142.823H318.191C326.091 142.823 330.657 144.756 331.888 148.623H329.605C328.486 145.963 324.569 144.633 317.855 144.633C314.14 144.633 311.421 145.013 309.697 145.773C307.974 146.511 307.112 147.718 307.112 149.394V149.461C307.112 150.958 307.65 151.975 308.724 152.511C309.798 153.025 311.801 153.338 314.733 153.45L323.898 153.785C327.188 153.875 329.504 154.355 330.847 155.227C332.212 156.076 332.895 157.462 332.895 159.384V159.652C332.895 161.082 332.537 162.289 331.821 163.273C331.127 164.256 330.097 165.016 328.732 165.552C327.389 166.066 325.901 166.424 324.267 166.625C322.633 166.848 320.72 166.96 318.527 166.96Z" fill="#5E4F7E"/>
<path d="M529.524 66.8768C529.524 65.7722 528.628 64.8768 527.524 64.8768H515.666C514.562 64.8768 513.666 63.9814 513.666 62.8768V51.6098C513.666 50.5052 514.562 49.6098 515.666 49.6098H527.524C528.628 49.6098 529.524 48.7143 529.524 47.6098V31.3333C529.524 30.2287 530.419 29.3333 531.524 29.3333H548.746C549.851 29.3333 550.746 30.2287 550.746 31.3333V47.6098C550.746 48.7143 551.642 49.6098 552.746 49.6098H570.804C571.908 49.6098 572.804 50.5052 572.804 51.6098V62.8768C572.804 63.9814 571.908 64.8768 570.804 64.8768H552.746C551.642 64.8768 550.746 65.7722 550.746 66.8768V84.7955C550.746 90.282 551.859 93.8205 554.085 95.4108C556.39 97.0011 560.762 97.7963 567.2 97.7963H570.804C571.908 97.7963 572.804 98.6917 572.804 99.7963V110.825C572.804 111.929 571.908 112.825 570.804 112.825H559.808C548.441 112.825 540.532 110.996 536.081 107.338C531.71 103.601 529.524 97.1601 529.524 88.0158V66.8768Z" fill="#2D3142"/>
<path d="M421.495 133.101C420.39 133.101 419.495 132.206 419.495 131.101V51.6097C419.495 50.5051 420.39 49.6097 421.495 49.6097H438.717C439.822 49.6097 440.717 50.5051 440.717 51.6097V60.4577C440.717 60.6586 440.88 60.8214 441.081 60.8214C441.223 60.8214 441.351 60.7386 441.412 60.6108C443.413 56.4247 446.798 53.354 451.567 51.3988C456.416 49.4109 463.132 48.4169 471.717 48.4169H474.34C486.421 48.4169 495.523 50.6831 501.643 55.2155C507.843 59.7479 510.943 67.5802 510.943 78.7124V83.7219C510.943 94.8541 507.843 102.686 501.643 107.219C495.523 111.751 486.421 114.017 474.34 114.017H471.717C463.132 114.017 456.416 113.023 451.567 111.036C446.798 109.08 443.413 106.01 441.412 101.824C441.351 101.696 441.223 101.613 441.081 101.613C440.88 101.613 440.717 101.776 440.717 101.977V131.101C440.717 132.206 439.822 133.101 438.717 133.101H421.495ZM484.116 67.5007C480.46 65.5128 474.141 64.5189 465.159 64.5189C456.177 64.5189 449.858 65.5128 446.202 67.5007C442.545 69.4091 440.717 73.4644 440.717 79.6666V82.7677C440.717 88.8904 442.545 92.9457 446.202 94.9336C449.938 96.9215 456.257 97.9155 465.159 97.9155C474.141 97.9155 480.46 96.9613 484.116 95.0529C487.773 93.065 489.601 88.9699 489.601 82.7677V79.6666C489.601 73.4644 487.773 69.4091 484.116 67.5007Z" fill="#2D3142"/>
<path d="M330.697 87.658V51.6098C330.697 50.5052 331.593 49.6098 332.697 49.6098H349.92C351.024 49.6098 351.92 50.5052 351.92 51.6098V84.1991C351.92 89.7652 353.311 93.4627 356.093 95.2916C358.875 97.0409 363.167 97.9156 368.97 97.9156C375.646 97.9156 380.614 96.6831 383.873 94.2181C387.211 91.6736 388.881 87.4195 388.881 81.4558V51.6098C388.881 50.5052 389.776 49.6098 390.881 49.6098H408.223C409.327 49.6098 410.223 50.5052 410.223 51.6098V110.825C410.223 111.929 409.327 112.825 408.223 112.825H390.881C389.776 112.825 388.881 111.929 388.881 110.825V102.057C388.881 101.812 388.682 101.613 388.437 101.613C388.27 101.613 388.118 101.708 388.04 101.855C383.779 109.963 374.998 114.017 361.697 114.017C356.848 114.017 352.675 113.66 349.178 112.944C345.76 112.228 342.58 110.956 339.639 109.127C336.698 107.298 334.473 104.595 332.963 101.017C331.452 97.4385 330.697 92.9856 330.697 87.658Z" fill="#2D3142"/>
<path d="M321.786 49.6098H324.197C325.302 49.6098 326.197 50.5052 326.197 51.6098V64.0695C326.197 65.1741 325.302 66.0695 324.197 66.0695H316.182C308.472 66.0695 302.868 67.2225 299.371 69.5285C295.873 71.8344 294.125 75.9692 294.125 81.9329V110.825C294.125 111.929 293.229 112.825 292.125 112.825H274.783C273.678 112.825 272.783 111.929 272.783 110.825V51.6098C272.783 50.5052 273.678 49.6098 274.783 49.6098H292.125C293.229 49.6098 294.125 50.5052 294.125 51.6098V60.3389C294.125 60.5396 294.287 60.7022 294.488 60.7022C294.63 60.7022 294.759 60.6192 294.82 60.491C296.66 56.6263 299.727 53.8739 304.021 52.2338C308.392 50.4845 314.314 49.6098 321.786 49.6098Z" fill="#2D3142"/>
<path d="M224.158 114.017H220.7C207.188 114.017 197.173 112.666 190.655 109.962C184.949 107.595 181.07 103.644 179.019 98.108C178.566 96.8837 179.525 95.6493 180.831 95.6493H200.172C200.788 95.6493 201.358 95.9435 201.794 96.3771C203.235 97.8091 205.325 98.799 208.062 99.3467C211.321 99.9829 216.329 100.301 223.085 100.301C231.034 100.301 236.439 99.8238 239.3 98.8696C242.241 97.9154 243.712 96.2456 243.712 93.8602V93.5023C243.712 91.753 242.798 90.5205 240.969 89.8049C239.221 89.0892 235.723 88.6519 230.477 88.4928L206.155 87.5387C196.775 87.2206 190.138 85.7098 186.243 83.0063C182.349 80.2232 180.401 75.8101 180.401 69.7669V68.5742C180.401 60.8611 183.74 55.5734 190.416 52.7108C197.093 49.8482 207.387 48.4169 221.297 48.4169H222.966C235.445 48.4169 244.745 49.8482 250.865 52.7108C256.184 55.1663 260.157 58.9674 262.784 64.1143C263.424 65.3679 262.461 66.7851 261.053 66.7851H241.796C241.197 66.7851 240.641 66.505 240.198 66.102C237.288 63.4563 230.988 62.1334 221.297 62.1334C213.904 62.1334 208.857 62.5707 206.155 63.4454C203.532 64.3201 202.22 65.7911 202.22 67.8585V68.3356C202.22 70.085 203.134 71.3175 204.962 72.0331C206.79 72.7487 210.288 73.1861 215.454 73.3451L239.896 74.2993C249.276 74.6969 255.873 76.2474 259.688 78.951C263.583 81.6545 265.53 86.0279 265.53 92.071V93.1445C265.53 100.937 262.311 106.384 255.873 109.485C249.435 112.507 238.863 114.017 224.158 114.017Z" fill="#2D3142"/>
<path d="M149.242 51.6096C149.242 50.5051 150.137 49.6096 151.242 49.6096H168.583C169.688 49.6096 170.583 50.5051 170.583 51.6096V110.825C170.583 111.929 169.688 112.825 168.583 112.825H151.242C150.137 112.825 149.242 111.929 149.242 110.825V51.6096Z" fill="#2D3142"/>
<path d="M168.583 29.3333H151.241C150.137 29.3333 149.241 30.2287 149.241 31.3333V40.4534C149.241 41.5579 150.137 42.4534 151.241 42.4534H168.583C169.688 42.4534 170.583 41.5579 170.583 40.4534V31.3333C170.583 30.2287 169.688 29.3333 168.583 29.3333Z" fill="#2D3142"/>
<path d="M36.2755 77.1562C36.2755 76.2021 37.0643 75.4286 38.0375 75.4286H47.3165C48.2897 75.4286 49.0785 76.2021 49.0785 77.1562V86.2724C49.0785 87.2265 48.2897 88 47.3165 88H38.0375C37.0643 88 36.2755 87.2265 36.2755 86.2724V77.1562Z" fill="#F70D1A"/>
<path d="M19.2047 52.0134C19.2047 51.0592 19.9935 50.2857 20.9667 50.2857H30.2457C31.2189 50.2857 32.0077 51.0592 32.0077 52.0134V61.1295C32.0077 62.0836 31.2189 62.8571 30.2457 62.8571H20.9667C19.9935 62.8571 19.2047 62.0837 19.2047 61.1295V52.0134Z" fill="#F70D1A"/>
<path d="M42.677 59.8184C42.677 59.1823 43.2029 58.6667 43.8517 58.6667H50.0377C50.6865 58.6667 51.2124 59.1823 51.2124 59.8184V65.8959C51.2124 66.532 50.6865 67.0476 50.0377 67.0476H43.8517C43.2029 67.0476 42.677 66.532 42.677 65.8959V59.8184Z" fill="#2D3142"/>
<path d="M12.8031 40.6734C12.8031 40.1963 13.1975 39.8095 13.6841 39.8095H18.3236C18.8102 39.8095 19.2046 40.1963 19.2046 40.6734V45.2314C19.2046 45.7085 18.8102 46.0952 18.3236 46.0952H13.6841C13.1975 46.0952 12.8031 45.7085 12.8031 45.2314V40.6734Z" fill="#2D3142"/>
<path d="M25.6062 98.6845C25.6062 97.4123 26.658 96.381 27.9555 96.381H40.3277C41.6252 96.381 42.677 97.4123 42.677 98.6845V110.839C42.677 112.112 41.6252 113.143 40.3277 113.143H27.9555C26.658 113.143 25.6062 112.112 25.6062 110.839V98.6845Z" fill="#F70D1A"/>
<path d="M94.5535 27.2381C118.401 27.2381 137.733 46.5776 137.733 70.434C137.733 94.2904 118.401 113.63 94.5535 113.63H49.7795C48.1349 113.63 46.8016 112.296 46.8016 110.651V99.3305C46.8016 97.6853 48.1349 96.3515 49.7795 96.3515H94.5535C108.862 96.3515 120.461 84.7478 120.461 70.434C120.461 56.1201 108.862 44.5164 94.5535 44.5164H49.7795C48.1349 44.5164 46.8016 43.1827 46.8016 41.5374V30.2171C46.8016 28.5719 48.1349 27.2381 49.7795 27.2381H94.5535Z" fill="#F70D1A"/>
<path d="M12.8031 88.8638C12.8031 88.3867 13.1975 88 13.6841 88H18.3236C18.8102 88 19.2046 88.3867 19.2046 88.8638V93.4219C19.2046 93.899 18.8102 94.2857 18.3236 94.2857H13.6841C13.1975 94.2857 12.8031 93.899 12.8031 93.4219V88.8638Z" fill="#2D3142"/>
<path d="M21.3385 80.4829C21.3385 80.0058 21.7329 79.619 22.2195 79.619H26.859C27.3456 79.619 27.74 80.0058 27.74 80.4829V85.0409C27.74 85.518 27.3456 85.9048 26.859 85.9048H22.2195C21.7329 85.9048 21.3385 85.518 21.3385 85.0409V80.4829Z" fill="#2D3142"/>
<path d="M25.6062 29.5416C25.6062 28.2694 26.658 27.2381 27.9555 27.2381H40.3277C41.6252 27.2381 42.677 28.2694 42.677 29.5416V41.6965C42.677 42.9687 41.6252 44 40.3277 44H27.9555C26.658 44 25.6062 42.9687 25.6062 41.6965V29.5416Z" fill="#2D3142"/>
<path d="M2.13385 59.8184C2.13385 59.1823 2.65977 58.6667 3.30852 58.6667H9.49458C10.1433 58.6667 10.6692 59.1823 10.6692 59.8184V65.8959C10.6692 66.532 10.1433 67.0476 9.49457 67.0476H3.30852C2.65977 67.0476 2.13385 66.532 2.13385 65.8959V59.8184Z" fill="#2D3142"/>
<path d="M14.937 68.1994C14.937 67.5633 15.4629 67.0476 16.1116 67.0476H22.2977C22.9464 67.0476 23.4723 67.5633 23.4723 68.1994V74.2768C23.4723 74.9129 22.9464 75.4286 22.2977 75.4286H16.1116C15.4629 75.4286 14.937 74.9129 14.937 74.2768V68.1994Z" fill="#2D3142"/>
</svg>
