<svg width="299" height="112" viewBox="0 0 299 112" fill="none" xmlns="http://www.w3.org/2000/svg">
<path d="M8.94903 76.8357H0V72.7891C0 71.7544 0.408778 70.7622 1.13541 70.0307C1.86347 69.2991 2.8491 68.8881 3.87815 68.8881H9.01064C9.29906 64.8729 10.6571 62.1202 13.0847 60.63C15.5531 59.0985 19.3177 58.3326 24.3789 58.3326H32.341V62.0696C32.341 64.0865 30.7154 65.7215 28.7106 65.7215H26.8485C24.3789 65.7215 22.6106 65.9284 21.5396 66.3423C20.47 66.7563 19.9351 67.4807 19.9351 68.5156V68.8881H32.341V72.8588C32.341 73.9135 31.9251 74.925 31.1831 75.671C30.441 76.4167 29.4359 76.8357 28.3872 76.8357H19.9351V101.796H14.3364C11.3614 101.796 8.94903 99.3698 8.94903 96.3766V76.8357Z" fill="white"/>
<path d="M48.238 58.3329V96.2698C48.238 99.3219 45.7782 101.797 42.7442 101.797H37.1902V63.8048C37.1902 60.7828 39.6249 58.3329 42.6294 58.3329H48.238Z" fill="white"/>
<path fill-rule="evenodd" clip-rule="evenodd" d="M78.7628 101.797H74.7503C67.3035 101.797 61.8307 100.637 58.3334 98.3194C54.8362 95.96 53.0875 91.862 53.0875 86.0254V83.4177C53.0875 77.581 54.8362 73.5038 58.3334 71.1857C61.8307 68.8263 67.3035 67.6465 74.7503 67.6465H78.7628C86.2097 67.6465 91.6824 68.8263 95.1796 71.1857C98.677 73.5038 100.426 77.581 100.426 83.4177V86.0254C100.426 91.862 98.677 95.96 95.1796 98.3194C91.6824 100.637 86.2097 101.797 78.7628 101.797ZM86.9796 79.3547H66.5321C66.0196 79.2643 64.2654 80.179 64.2318 81.8558V87.9691C64.5006 89.3232 65.3042 90.0401 66.5321 90.2492H86.9796C88.2089 90.0401 89.0125 89.3232 89.2813 87.9691V81.8558C89.2477 80.179 87.4934 79.2643 86.9796 79.3547Z" fill="white"/>
<path fill-rule="evenodd" clip-rule="evenodd" d="M63.9622 0.086731C88.5779 0.241284 108.463 19.8105 108.486 46.1619C108.49 51.217 108.493 54.4129 108.496 56.4091C108.498 57.2449 108.169 58.0473 107.581 58.639C106.994 59.2306 106.196 59.5632 105.364 59.5632C99.2662 59.5632 85.527 59.5632 75.4333 59.5632C72.2557 59.5632 69.2124 58.2121 66.9663 55.8103C64.7201 53.4055 63.4572 50.1447 63.4601 46.7445C63.4633 28.2692 63.4662 5.00462 63.4693 0.587484C63.4693 0.454568 63.5178 0.327834 63.6062 0.232011C63.6946 0.139279 63.8132 0.086731 63.9411 0.086731H63.9622Z" fill="white"/>
<path fill-rule="evenodd" clip-rule="evenodd" d="M157.518 87.6542C151.428 93.6485 144.963 100.217 138.643 106.931C135.614 110.163 131.392 111.997 126.975 111.997C123.807 112 120.033 112 116.724 112C114.542 112 112.451 111.129 110.906 109.577C109.364 108.025 108.498 105.921 108.501 103.728V69.5884C108.501 69.0894 108.771 68.6295 109.206 68.3881C109.64 68.1464 110.171 68.1612 110.592 68.4267C124.631 77.4378 139.546 55.2077 157.518 37.788C165.504 30.0471 174.103 22.6601 183.516 18.2935C188.052 16.4773 192.244 15.9289 196.033 16.5585C199.038 17.0546 201.247 19.6659 201.247 22.7269V63.1792C201.247 63.2521 201.207 63.3194 201.144 63.3542C201.08 63.3893 201.002 63.3867 200.941 63.3472C195.425 59.8087 189.758 59.9665 183.963 63.2854C183.672 63.4508 183.394 63.6368 183.129 63.837C182.609 64.2403 182.055 64.6984 181.469 65.2091C175.818 70.1356 167.141 78.1783 157.518 87.6542Z" fill="#09A4BD"/>
<path fill-rule="evenodd" clip-rule="evenodd" d="M292.03 0.214658C295.991 0.638262 299 3.99808 299 8.002V44.9875C299 45.4509 298.764 45.882 298.374 46.1298C297.984 46.3776 297.495 46.4074 297.078 46.209C291.182 43.5812 281.756 43.9407 276.201 46.8807C275.843 47.0722 275.499 47.2956 275.176 47.5422C274.656 47.9368 274.105 48.3923 273.519 48.9029C264.343 56.8992 247.763 86.5137 231.637 106.246C228.597 109.884 224.11 111.982 219.383 111.982C216.288 112 212.664 112 209.473 112C207.291 112 205.197 111.126 203.655 109.577C202.111 108.025 201.247 105.918 201.247 103.725C201.263 90.7918 201.29 66.9336 201.293 63.8727C201.293 63.8135 201.327 63.7601 201.381 63.7354C201.434 63.7108 201.496 63.7195 201.541 63.7578C222.33 81.2477 244.06 16.6078 275.566 1.98741C280.013 0.205954 286.613 -0.356916 292.03 0.214658Z" fill="#09A4BD"/>
</svg>
