<svg width="214" height="60" viewBox="0 0 214 60" fill="none" xmlns="http://www.w3.org/2000/svg">
<path fill-rule="evenodd" clip-rule="evenodd" d="M129.087 13.1546V23.2994H126.176C125.397 23.2994 124.651 22.9871 124.1 22.431C123.55 21.8749 123.241 21.1207 123.241 20.3342C123.241 20.1873 123.241 20.0992 123.241 20.0992H123.111C122.131 22.4461 119.268 23.6194 114.521 23.6194C108.838 23.6194 105.997 21.806 105.997 18.179V17.923C106.019 14.8508 108.066 13.2506 112.137 13.1227L123.241 12.7706V12.6425C123.241 11.4692 122.849 10.6744 122.065 10.2584C121.282 9.84232 119.921 9.63438 117.983 9.63438C116.394 9.63438 115.229 9.76766 114.488 10.0344C113.848 10.2652 113.362 10.6437 113.031 11.1704C112.936 11.3261 112.768 11.4209 112.588 11.4209C111.363 11.4265 106.814 11.4265 106.814 11.4265C107.358 9.52778 108.458 8.15156 110.112 7.29824C111.767 6.44474 114.412 6.01816 118.048 6.01816H118.865C122.653 6.01816 125.304 6.54609 126.817 7.60215C128.33 8.6582 129.087 10.5092 129.087 13.1546ZM111.908 17.859V17.987C111.908 18.7763 112.262 19.3364 112.97 19.6672C113.677 19.9978 114.826 20.1632 116.415 20.1632C118.484 20.1632 120.138 19.8165 121.38 19.1232C122.621 18.4297 123.241 17.4537 123.241 16.1949V15.9069L114.946 16.1949C113.879 16.2375 113.106 16.3868 112.627 16.6429C112.148 16.8989 111.908 17.3044 111.908 17.859Z" fill="white"/>
<path fill-rule="evenodd" clip-rule="evenodd" d="M145.514 6.3382H146.723V8.54834C146.723 9.1334 146.493 9.69455 146.083 10.1084C145.674 10.5221 145.118 10.7545 144.54 10.7545C144.211 10.7545 143.979 10.7545 143.979 10.7545C141.867 10.7545 140.333 11.0639 139.375 11.6825C138.416 12.3014 137.937 13.4108 137.937 15.0109V20.3382C137.937 21.1235 137.629 21.8768 137.079 22.4322C136.53 22.9876 135.784 23.2995 135.007 23.2995C133.548 23.2995 132.091 23.2995 132.091 23.2995V9.2426C132.091 7.63845 133.378 6.3382 134.966 6.3382C136.443 6.3382 137.937 6.3382 137.937 6.3382V9.31448H138.101C138.602 8.24759 139.451 7.48499 140.648 7.02631C141.846 6.56745 143.468 6.3382 145.514 6.3382Z" fill="white"/>
<path fill-rule="evenodd" clip-rule="evenodd" d="M154.626 18.9792V23.2995H153.074C151.935 23.2995 150.843 22.8423 150.038 22.0288C149.233 21.215 148.78 20.1114 148.78 18.9607C148.78 12.4474 148.78 6.35725 148.78 6.35725H150.39C151.514 6.35725 152.591 6.80808 153.385 7.61081C154.18 8.41353 154.626 9.50226 154.626 10.6375C154.626 14.3155 154.626 13.5708 154.626 13.5708H154.79C154.79 13.5708 161.473 8.71764 163.891 6.96227C164.45 6.55643 165.121 6.3382 165.809 6.3382C167.914 6.3382 172.425 6.3382 172.425 6.3382L162.464 13.4427L173.405 23.2995C173.405 23.2995 169.232 23.2995 166.938 23.2995C165.992 23.2995 165.08 22.9456 164.377 22.3062C162.331 20.4431 158.121 16.6109 158.121 16.6109H157.957L154.626 18.9792Z" fill="white"/>
<path fill-rule="evenodd" clip-rule="evenodd" d="M189.824 18.644C190.247 18.2635 190.795 18.0533 191.362 18.0533C193.066 18.0511 196.266 18.0511 196.266 18.0511C195.787 20.0351 194.715 21.4593 193.049 22.3233C191.384 23.1874 188.678 23.6194 184.934 23.6194H184.15C180.187 23.6194 177.297 23.022 175.479 21.8273C173.661 20.6325 172.752 18.5204 172.752 15.4908V14.1466C172.752 11.1172 173.661 9.00508 175.479 7.81032C177.297 6.61556 180.187 6.01816 184.15 6.01816H184.803C188.787 6.01816 191.716 6.62078 193.588 7.82618C195.461 9.03158 196.397 11.1385 196.397 14.1466V14.147C196.397 14.6223 196.21 15.078 195.877 15.414C195.545 15.7501 195.094 15.9388 194.624 15.9388H178.598C178.663 17.4963 179.136 18.5043 180.018 18.963C180.9 19.4219 182.419 19.6511 184.574 19.6511C186.49 19.6511 187.835 19.5339 188.608 19.2991C189.092 19.1519 189.498 18.9337 189.824 18.644ZM184.574 9.63438C182.593 9.63438 181.145 9.84232 180.231 10.2584C179.316 10.6744 178.783 11.5331 178.63 12.8346H190.551V12.7066C190.551 11.5118 190.066 10.7011 189.097 10.2745C188.129 9.84775 186.621 9.63438 184.574 9.63438Z" fill="white"/>
<path fill-rule="evenodd" clip-rule="evenodd" d="M202.145 10.4345H197.801V8.33617C197.801 7.23269 198.686 6.33812 199.778 6.33812C200.925 6.33812 202.145 6.33812 202.145 6.33812V3.81196C202.145 2.20239 203.436 0.897675 205.029 0.897675H207.958V6.33812H214V8.3765C214 9.51302 213.088 10.4345 211.963 10.4345C210.209 10.4345 207.958 10.4345 207.958 10.4345V15.7788C207.958 17.251 208.268 18.2004 208.889 18.627C209.509 19.0537 210.701 19.2671 212.465 19.2671H214V21.3001C214 21.8304 213.791 22.339 213.42 22.7138C213.049 23.0889 212.546 23.2994 212.021 23.2994C211.202 23.2994 210.44 23.2994 210.44 23.2994C207.327 23.2994 205.165 22.8034 203.957 21.8114C202.749 20.8192 202.145 19.0965 202.145 16.6429V10.4345Z" fill="white"/>
<path fill-rule="evenodd" clip-rule="evenodd" d="M125.205 59.9536C112.092 59.8708 101.499 49.3872 101.487 35.2705C101.483 30.4256 101.481 28.769 101.48 28.276C101.479 28.227 101.499 28.1801 101.533 28.1453C101.567 28.1107 101.613 28.0912 101.662 28.0912C103.087 28.0912 112.535 28.0912 119.094 28.0912C120.787 28.0912 122.408 28.815 123.605 30.1017C124.801 31.39 125.474 33.1368 125.473 34.9583C125.471 44.8558 125.469 57.319 125.468 59.6853C125.468 59.7565 125.442 59.8244 125.395 59.8757C125.348 59.9254 125.284 59.9536 125.216 59.9536H125.205Z" fill="white"/>
<path fill-rule="evenodd" clip-rule="evenodd" d="M75.3678 13.0424C78.6117 9.8312 82.0555 6.31223 85.4225 2.71554C87.036 0.984032 89.2847 0.00170517 91.638 0.00170517C93.3253 0.000152588 95.3357 -3.8147e-06 97.0984 -3.8147e-06C98.2612 -3.8147e-06 99.3748 0.466446 100.198 1.298C101.019 2.12957 101.48 3.25644 101.479 4.43151V24.01C101.479 24.0411 101.461 24.0694 101.433 24.0824C101.405 24.0955 101.372 24.091 101.349 24.0709C93.5799 17.4665 85.3607 30.0154 75.3678 39.7564C71.1133 43.9034 66.5328 47.8606 61.5185 50.1999C59.1021 51.1729 56.8688 51.4667 54.8508 51.1294C53.2496 50.8636 52.0729 49.4647 52.0729 47.8249C52.0729 42.1221 52.0729 27.987 52.0729 26.154C52.0729 26.115 52.0942 26.0789 52.128 26.0603C52.162 26.0415 52.2034 26.0429 52.236 26.064C55.1745 27.9597 58.1933 27.8751 61.2801 26.0971C61.4355 26.0085 61.5831 25.9089 61.7246 25.8016C62.0015 25.5856 62.2968 25.3402 62.6091 25.0666C65.6192 22.4274 70.2412 18.1188 75.3678 13.0424Z" fill="#09A4BD"/>
<path fill-rule="evenodd" clip-rule="evenodd" d="M3.713 59.885C1.6027 59.658 -7.62939e-06 57.8581 -7.62939e-06 55.7132V35.0832C-7.62939e-06 35.0041 0.0424309 34.9311 0.111031 34.8925C0.179478 34.854 0.263149 34.856 0.329903 34.8976C3.37892 36.6744 8.958 36.5817 12.145 34.8854C12.3357 34.7828 12.5188 34.6631 12.691 34.531C12.9679 34.3196 13.2617 34.0756 13.5739 33.802C18.4621 29.5183 27.2939 13.6534 35.8844 3.0825C37.504 1.13339 39.8943 0.00962067 42.4122 0.00962067C44.061 0.000293732 45.9914 0.000293732 47.691 0.000293732C48.8538 0.000293732 49.9689 0.468143 50.7903 1.29815C51.6132 2.12971 52.0731 3.25814 52.0731 4.4332C52.0645 11.3616 52.0505 24.1427 52.0486 25.7825C52.0486 25.8142 52.0305 25.8428 52.002 25.856C51.9737 25.8692 51.9404 25.8646 51.9165 25.8441C40.8423 16.4745 29.2669 51.1029 12.4834 58.9353C10.1147 59.8896 6.59851 60.1912 3.713 59.885Z" fill="#09A4BD"/>
</svg>
