<svg width="282" height="112" viewBox="0 0 282 112" fill="none" xmlns="http://www.w3.org/2000/svg">
<path d="M97.9826 79.3957V97.926H92.7409C89.8607 97.926 87.5259 95.5898 87.5259 92.7081C87.5259 92.3225 87.5259 92.0805 87.5259 92.0805H87.2929C85.5396 96.3672 80.4186 98.5106 71.9282 98.5106C61.7639 98.5106 56.6817 95.198 56.6817 88.5732V88.1056C56.7205 82.4937 60.3816 79.5709 67.664 79.3371L87.5259 78.694V78.4602C87.5259 76.3169 86.8252 74.8653 85.4231 74.1054C84.021 73.3455 81.5869 72.9656 78.1209 72.9656C75.2778 72.9656 73.194 73.209 71.8704 73.6963C71.08 73.987 70.4217 74.4059 69.8954 74.9532C69.1206 75.7688 68.0463 76.2304 66.922 76.2304C63.7657 76.2391 58.1416 76.2391 58.1416 76.2391C59.1158 72.7705 61.0822 70.2572 64.0418 68.6984C67.0022 67.1394 71.7341 66.36 78.2373 66.36H79.6981C86.4749 66.36 91.2163 67.3245 93.9231 69.2536C96.6298 71.1827 97.9826 74.5634 97.9826 79.3957ZM67.255 87.9886V88.2223C67.255 89.6643 67.8884 90.6871 69.1534 91.2912C70.4191 91.8953 72.4735 92.1973 75.3166 92.1973C79.0165 92.1973 81.976 91.564 84.1961 90.2976C86.4162 89.0311 87.5259 87.2482 87.5259 84.9488V84.4227L72.6884 84.9488C70.7797 85.0268 69.3975 85.2996 68.5407 85.7672C67.6839 86.2348 67.255 86.9754 67.255 87.9886Z" fill="#FFFFFF"/>
<path d="M127.367 66.9446H129.529V70.9608C129.529 73.198 127.717 75.0114 125.481 75.0114H124.621C120.844 75.0114 118.098 75.5765 116.385 76.7067C114.671 77.8369 113.814 79.8632 113.814 82.786V92.6611C113.814 94.0573 113.26 95.3967 112.273 96.3839C111.287 97.3713 109.949 97.926 108.553 97.926C105.949 97.926 103.357 97.926 103.357 97.926V72.1198C103.357 69.2615 105.673 66.9446 108.529 66.9446C111.163 66.9446 113.814 66.9446 113.814 66.9446V72.381H114.107C115.002 70.4324 116.521 69.0393 118.663 68.2014C120.805 67.3635 123.707 66.9446 127.367 66.9446Z" fill="#FFFFFF"/>
<path d="M139.226 74.4268H131.457V70.6503C131.457 68.6037 133.115 66.9446 135.16 66.9446C137.161 66.9446 139.226 66.9446 139.226 66.9446V62.1779C139.226 60.8066 139.77 59.4912 140.739 58.5216C141.709 57.552 143.023 57.0072 144.394 57.0072C147.004 57.0072 149.625 57.0072 149.625 57.0072V66.9446H160.432V70.7157C160.432 71.7 160.041 72.6439 159.346 73.3399C158.65 74.0358 157.707 74.4268 156.723 74.4268C153.596 74.4268 149.625 74.4268 149.625 74.4268V84.1889C149.625 86.8779 150.18 88.6122 151.289 89.3915C152.4 90.1709 154.532 90.5605 157.687 90.5605H160.432V94.2561C160.432 95.2294 160.046 96.1628 159.358 96.8512C158.67 97.5392 157.737 97.9259 156.764 97.9259H154.064C148.496 97.9259 144.63 97.0199 142.469 95.2079C140.307 93.3956 139.226 90.249 139.226 85.7672V74.4268Z" fill="#FFFFFF"/>
<path d="M203.895 79.2786V92.7722C203.895 94.1393 203.352 95.4501 202.386 96.4164C201.421 97.3829 200.111 97.926 198.745 97.926H193.496V80.9739C193.496 78.246 192.816 76.4435 191.452 75.5669C190.089 74.69 187.986 74.2515 185.143 74.2515C181.871 74.2515 179.428 74.8653 177.811 76.093C176.195 77.3204 175.387 79.3957 175.387 82.3184V92.7245C175.387 95.5972 173.06 97.926 170.189 97.926H164.93V67.8263C164.93 67.5925 165.023 67.3681 165.188 67.203C165.354 67.0376 165.577 66.9446 165.811 66.9446C168.331 66.9446 175.387 66.9446 175.387 66.9446V72.4395H175.737C177.802 68.3866 182.125 66.36 188.707 66.36C191.082 66.36 193.116 66.5356 194.811 66.8861C196.505 67.2369 198.073 67.8605 199.514 68.7566C200.955 69.653 202.045 70.978 202.785 72.7318C203.525 74.4853 203.895 76.6677 203.895 79.2786Z" fill="#FFFFFF"/>
<path d="M239.105 89.4226C239.863 88.7284 240.852 88.3433 241.879 88.3433C244.933 88.3394 250.629 88.3394 250.629 88.3394C249.773 91.9635 247.855 94.5648 244.875 96.143C241.896 97.7213 237.057 98.5106 230.358 98.5106H228.956C221.868 98.5106 216.698 97.4194 213.446 95.237C210.194 93.0546 208.568 89.1965 208.568 83.6628V81.2077C208.568 75.6741 210.194 71.8159 213.446 69.6336C216.698 67.4512 221.868 66.36 228.956 66.36H230.125C237.252 66.36 242.49 67.4611 245.839 69.663C249.188 71.8645 250.863 75.7131 250.863 81.2077C250.863 82.0758 250.518 82.9086 249.905 83.5226C249.291 84.1364 248.459 84.4812 247.592 84.4812C239.468 84.4812 219.025 84.4812 219.025 84.4812C219.141 87.3259 219.989 89.1674 221.566 90.0053C223.143 90.8432 225.86 91.2621 229.716 91.2621C233.143 91.2621 235.548 91.0478 236.93 90.619C237.797 90.3504 238.522 89.9516 239.105 89.4226ZM229.716 72.9656C226.172 72.9656 223.582 73.3455 221.946 74.1054C220.311 74.8653 219.356 76.4339 219.084 78.8111H240.406V78.5773C240.406 76.3949 239.539 74.9142 237.807 74.1345C236.073 73.3552 233.377 72.9656 229.716 72.9656Z" fill="#FFFFFF"/>
<path d="M279.839 66.9446H282V70.9817C282 72.0505 281.576 73.0756 280.821 73.8312C280.066 74.5868 279.041 75.0114 277.973 75.0114H277.093C273.315 75.0114 270.57 75.5765 268.856 76.7067C267.143 77.8369 266.286 79.8632 266.286 82.786V92.7536C266.286 95.6102 263.972 97.926 261.117 97.926C258.482 97.926 255.829 97.926 255.829 97.926V72.0407C255.829 69.2262 258.109 66.9446 260.922 66.9446C263.58 66.9446 266.286 66.9446 266.286 66.9446V72.381H266.577C267.473 70.4324 268.993 69.0393 271.134 68.2014C273.277 67.3635 276.178 66.9446 279.839 66.9446Z" fill="#FFFFFF"/>
<path d="M24.5002 49.031C38.0312 49.031 49 38.0552 49 24.5156C49 10.976 38.0312 0 24.5002 0C10.9693 0 0 10.976 0 24.5156C0 38.0552 10.9693 49.031 24.5002 49.031Z" fill="#0CA3BD"/>
<path d="M77.5132 56C88.8278 56 98 46.822 98 35.5001C98 24.1782 88.8278 15 77.5132 15C66.1985 15 57.0259 24.1782 57.0259 35.5001C57.0259 46.822 66.1985 56 77.5132 56Z" fill="#FFFFFF"/>
<path d="M45.2285 56.0026C46.2383 56.0027 47.2076 56.4042 47.9229 57.1198C48.6382 57.8356 49.04 58.8044 49.04 59.817V90.0651C49.04 95.8402 46.746 101.377 42.665 105.461C38.586 109.544 33.0508 111.837 27.2793 111.837H3.81152C2.79951 111.837 1.82966 111.435 1.11621 110.721C0.400996 110.006 8.27576e-05 109.036 0 108.025V77.693C0.0001298 65.7139 9.70526 56.0026 21.6768 56.0026H45.2285Z" fill="#0CA3BD"/>
</svg>
