<svg width="122" height="112" viewBox="0 0 122 112" fill="none" xmlns="http://www.w3.org/2000/svg">
<path d="M13.4967 -1.44615e-10C13.4967 12.3369 0.501477 15.4816 0.501489 27.5767C0.5015 39.6717 13.7398 44.0203 13.4967 56.3629C13.2637 68.1917 0.65902 71.8675 0.501486 83.6976C0.339399 95.8697 13.4967 99.905 13.4967 112" stroke="#3CDCF6"/>
<path d="M31.4967 -1.44615e-10C31.4967 12.3369 18.5015 15.4816 18.5015 27.5767C18.5015 39.6717 31.7398 44.0203 31.4967 56.3629C31.2637 68.1917 18.659 71.8675 18.5015 83.6976C18.3394 95.8697 31.4967 99.905 31.4967 112" stroke="#3CDCF6"/>
<path d="M49.4967 -1.44615e-10C49.4967 12.3369 36.5015 15.4816 36.5015 27.5767C36.5015 39.6717 49.7398 44.0203 49.4967 56.3629C49.2637 68.1917 36.659 71.8675 36.5015 83.6976C36.3394 95.8697 49.4967 99.905 49.4967 112" stroke="#3CDCF6"/>
<path d="M67.4967 -1.44615e-10C67.4967 12.3369 54.5015 15.4816 54.5015 27.5767C54.5015 39.6717 67.7398 44.0203 67.4967 56.3629C67.2637 68.1917 54.659 71.8675 54.5015 83.6976C54.3394 95.8697 67.4967 99.905 67.4967 112" stroke="#3CDCF6"/>
<path d="M85.4967 -1.44615e-10C85.4967 12.3369 72.5015 15.4816 72.5015 27.5767C72.5015 39.6717 85.7398 44.0203 85.4967 56.3629C85.2637 68.1917 72.659 71.8675 72.5015 83.6976C72.3394 95.8697 85.4967 99.905 85.4967 112" stroke="#3CDCF6"/>
<path d="M103.497 -1.44615e-10C103.497 12.3369 90.5015 15.4816 90.5015 27.5767C90.5015 39.6717 103.74 44.0203 103.497 56.3629C103.264 68.1917 90.659 71.8675 90.5015 83.6976C90.3394 95.8697 103.497 99.905 103.497 112" stroke="#3CDCF6"/>
<path d="M121.497 -1.44615e-10C121.497 12.3369 108.501 15.4816 108.501 27.5767C108.502 39.6717 121.74 44.0203 121.497 56.3629C121.264 68.1917 108.659 71.8675 108.501 83.6976C108.339 95.8697 121.497 99.905 121.497 112" stroke="#3CDCF6"/>
</svg>
